<svg preserveAspectRatio="xMidYMid meet" viewBox="0 0 492.79944088176353 158.48113207547172" xmlns="http://www.w3.org/2000/svg" version="1.0" style="max-height: 500px" width="492.79944088176353" height="158.48113207547172">
<g stroke="none" fill="#000000" transform="translate(0.000000,157.000000) scale(0.100000,-0.100000)">
<path d="M245 1508 c-14 -29 -25 -60 -25 -69 0 -8 -11 -49 -25 -90 -22 -64&#10;-50 -158 -86 -289 -47 -174 -92 -456 -91 -570 0 -91 30 -347 45 -390 3 -8 8&#10;-27 11 -42 3 -15 13 -34 22 -42 14 -14 245 -16 2382 -16 1302 0 2372 4 2378 8&#10;16 10 21 32 38 152 22 151 36 321 36 427 0 199 -68 518 -166 779 -19 51 -34&#10;95 -34 98 0 3 -9 26 -21 51 -26 55 -45 57 -130 14 -80 -40 -270 -111 -389&#10;-144 -52 -15 -126 -36 -165 -47 -38 -11 -92 -24 -120 -29 -27 -5 -70 -13 -95&#10;-19 -25 -6 -70 -14 -100 -20 -30 -5 -80 -14 -110 -20 -30 -6 -91 -16 -135 -21&#10;-44 -6 -114 -14 -155 -20 -156 -19 -644 -50 -810 -50 -201 0 -725 30 -870 51&#10;-41 6 -109 15 -150 20 -41 5 -124 18 -185 30 -60 11 -132 25 -160 30 -46 8&#10;-202 47 -335 84 -50 13 -251 81 -358 121 -24 8 -65 27 -92 40 -27 14 -56 25&#10;-65 25 -9 0 -26 -22 -40 -52z"/>
</g>
</svg>