<svg style="max-height: 500px" preserveAspectRatio="xMidYMid meet" viewBox="579.6 1044 666 226.8" xmlns="http://www.w3.org/2000/svg" version="1.0" width="666" height="226.8"> <g class="" stroke="none" fill="#000000" transform="translate(0.000000,1800.000000) scale(0.100000,-0.100000)">  <path d="M6915 7474 c-237 -27 -366 -68 -510 -162 -205 -135 -365 -346 -429 -567 -9 -33 -22 -78 -29 -100 -16 -53 -16 -379 0 -420 6 -16 21 -63 33 -104 13 -40 29 -85 36 -100 8 -14 14 -30 14 -35 0 -18 131 -203 182 -257 200 -213 464 -324 763 -323 128 0 207 13 325 55 78 28 239 108 267 133 6 6 26 22 45 36 56 43 191 187 208 224 3 6 21 36 41 66 36 56 93 197 105 260 4 19 12 41 18 49 6 8 10 81 10 200 0 199 -6 231 -68 395 -92 242 -306 464 -546 564 -118 50 -161 61 -281 77 -111 15 -124 15 -184 9z"/> <path d="M11170 7464 c-63 -7 -124 -18 -135 -23 -11 -5 -31 -13 -45 -17 -14 -3 -53 -19 -87 -35 -34 -16 -66 -29 -72 -29 -5 0 -47 -26 -92 -57 -194 -133 -348 -339 -408 -543 -12 -41 -27 -93 -34 -115 -20 -65 -16 -345 6 -435 10 -41 23 -83 28 -92 5 -10 9 -23 9 -29 0 -6 21 -54 47 -107 121 -247 329 -430 590 -521 119 -41 208 -56 333 -56 214 0 426 65 590 179 158 110 288 267 357 429 19 45 38 91 44 102 8 19 20 69 39 175 12 62 11 245 0 300 -6 25 -15 70 -20 102 -11 60 -52 165 -101 255 -100 185 -296 361 -489 440 -128 53 -161 62 -285 78 -136 17 -123 17 -275 -1z"/> </g> </svg>