<svg version="1.0" xmlns="http://www.w3.org/2000/svg" width="600.000000pt" height="600.000000pt" viewBox="0 0 600.000000 600.000000" preserveAspectRatio="xMidYMid meet" style="width: 420px; height: auto;"> <g transform="translate(0.000000,600.000000) scale(0.100000,-0.100000)" fill="#000000" stroke="none" class="">      <path d="M2748 3119 c-708 -39 -1167 -331 -1300 -827 -31 -117 -35 -587 -5 -647 222 -447 784 -687 1607 -686 802 0 1329 211 1581 632 l39 65 0 301 c0 334 -4 362 -75 503 -229 455 -940 709 -1847 659z m-323 -634 c201 -60 306 -290 217 -478 -129 -275 -505 -274 -635 1 -125 267 134 563 418 477z m1496 -18 c338 -165 228 -662 -146 -662 -399 0 -483 557 -102 681 67 22 183 13 248 -19z" class="" stroke-width="1"></path>            </g> </svg>