<svg style="max-height: 500px" preserveAspectRatio="xMidYMid meet" viewBox="0 0 603.125 521" xmlns="http://www.w3.org/2000/svg" version="1.0" width="603.125" height="521"> <g class="" stroke="none" fill="#000000" transform="translate(0.000000,521.000000) scale(0.066667,-0.066667)">   <path d="M4193 7763 c-50 -9 -146 -46 -213 -82 -502 -261 -671 -917 -363 -1405 516 -818 1811 -448 1819 519 6 666 -559 1105 -1243 968z"/>  <path class="" d="M4742 4719 l6 -294 -307 0 -306 0 11 275 c10 271 6 309 -28 280 -10 -8 -85 -22 -167 -30 -169 -17 -276 -40 -628 -136 -57 -15 -351 -124 -391 -145 -16 -8 -110 -54 -209 -102 -187 -91 -460 -257 -578 -351 -37 -30 -105 -82 -151 -117 -116 -88 -442 -413 -524 -522 -36 -49 -87 -113 -112 -142 -132 -152 -368 -565 -472 -827 -104 -261 -82 -242 -262 -230 -282 19 -375 -43 -470 -314 -226 -645 -122 -1843 173 -1995 43 -22 457 -40 476 -21 6 6 10 256 8 555 -3 585 8 741 66 966 286 1100 1319 1841 2748 1972 97 9 242 22 320 30 78 7 240 13 360 13 2170 3 3602 -745 3942 -2061 19 -73 25 -226 32 -783 5 -381 12 -696 16 -700 4 -4 90 -4 191 1 l184 8 64 69 c146 157 212 422 230 925 25 670 -80 1154 -282 1302 -51 37 -264 53 -345 26 -92 -30 -118 -8 -176 151 -110 301 -346 717 -553 973 -30 37 -62 77 -70 89 -50 69 -453 468 -546 539 -499 385 -999 628 -1547 753 -70 17 -150 37 -177 46 -27 8 -112 21 -188 29 -187 18 -299 35 -323 50 -16 10 -19 -38 -15 -282z"/>   </g> </svg>