<?xml version="1.0" encoding="UTF-8"?>
<svg id="_レイヤー_2" data-name="レイヤー 2" xmlns="http://www.w3.org/2000/svg" viewBox="0 0 784.59 256.1">
  <defs>
    <style>
      .cls-1 {
        fill: #c00078;
      }
    </style>
  </defs>
  <g id="_レイヤー_1-2" data-name="レイヤー 1">
    <g>
      <path class="cls-1" d="M765.86,256.1c-7.2-11.55-15.36-21.59-25.13-30.27-23.67-21.04-51.39-32.37-82.99-33.38-18.44-.59-37.01-1.51-55.29,2.3-36.52,7.6-65.01,27.06-85.43,58.31-.54,.83-1.15,1.6-2.05,2.84-7.53-13-12.44-26.59-15.49-40.87-2.34-10.95-3.31-22.05-3.06-33.25,.38-17.31-1.28-34.71,.89-51.94,7.41-58.86,38.87-100.01,94.18-120.77,76.94-28.87,161.75,13.85,186.37,92.25,4.11,13.1,6.5,26.55,6.43,40.28-.1,19.81,1.12,39.66-.84,59.44-1.9,19.3-7.84,37.34-17.61,55.09Z"/>
      <path class="cls-1" d="M19.48,252.89C7.68,232.24,1.32,210.82,.73,188.02c-.51-19.47-1.65-39.05,.7-58.43C8.2,73.85,37.4,33.6,88.83,11.65c81.04-34.59,172.12,11.01,194.92,96.17,2.9,10.82,4.64,21.86,4.59,33.05-.08,19.15,1.17,38.34-.92,57.44-2.1,19.2-7.98,37.2-18,54.6-5.59-8.4-11.13-16.03-17.78-22.75-25.15-25.44-55.52-39.17-91.35-39.92-16.95-.36-33.98-1.3-50.85,1.77-36.77,6.68-65.57,25.61-86.77,56.28-.92,1.33-1.85,2.66-3.2,4.6Z"/>
    </g>
  </g>
</svg>