<?xml version="1.0" encoding="UTF-8"?>
<svg id="_レイヤー_2" data-name="レイヤー 2" xmlns="http://www.w3.org/2000/svg" viewBox="0 0 1515.42 1238.11">
  <defs>
    <style>
      .cls-1 {
        fill: #fff;
      }
    </style>
  </defs>
  <g id="_レイヤー_1-2" data-name="レイヤー 1">
    <g>
      <path class="cls-1" d="M1387,437.52c.33-2.08,.94-4.15,.93-6.23-.04-22.64-.27-45.29-.26-67.93,0-26.14,.22-52.28,.29-78.42,.02-6.16-.3-12.31-.29-18.47,.02-14.74,12.13-27.36,26.2-27.41,14.87-.06,26.48,11.27,27.07,26.41,.03,.67,0,1.33,.01,2,.11,34.47,.44,68.94,.25,103.4-.12,21.91-1.03,43.82-1.58,65.74-.04,1.8,0,3.6,0,5.56,18.47,2.07,29.15,14.05,38.3,28.05,14.83,22.71,21.66,48.41,27.46,74.44,7.7,34.58,10.43,69.67,10.01,105.03-.14,11.95,.21,23.98-1.02,35.83-3.8,36.76-9.19,73.3-23.32,107.8-5.6,13.67-12.22,26.93-22.46,38.06-9.17,9.97-19.76,15.88-33.72,15.32-11.31-.46-22.65-.04-33.97-.32-4.84-.12-7.08,1.81-8.45,6.43-8.91,30.05-20.96,58.81-36.58,85.99-7.45,12.97-15.36,25.67-23.35,38.32-16.42,26-37.02,48.6-58.46,70.41-27.87,28.35-58.88,52.84-92.19,74.57-27.78,18.13-56.85,33.87-87,47.49-44.95,20.29-91.68,35.49-139.75,46.61-46.32,10.72-93.26,16.91-140.65,20.05-39.09,2.59-78.17,2.46-117.24-.21-40.89-2.79-81.58-7.59-121.56-16.59-28.65-6.45-57.12-14.15-85.11-23.03-52.48-16.66-102.1-39.94-148.82-69.11-25.19-15.73-48.64-33.85-71.46-52.92-23.76-19.86-44.61-42.39-64.06-66.23-37.38-45.85-65.03-97.09-82.96-153.52-2.66-8.37-2.68-8.2-11.57-8.08-11.66,.16-23.32,0-34.98,.06-10.06,.06-18.26-3.87-25.49-10.74-12.14-11.52-19.4-26.03-25.87-41.04-9.4-21.81-14.75-44.84-18.8-68.08-2.76-15.86-3.87-32.03-5.17-48.1-2.47-30.6-1.49-61.21,2-91.66,4.68-40.88,13.07-80.89,34.1-116.95,8.43-14.45,20.25-25.58,38.8-27.82v-20.2c0-51.46,0-102.91,0-154.37,0-15.69,10.22-26.79,24.69-26.93,15.01-.14,25.97,11,26.09,26.84,.39,54.6,.68,109.19,1.06,163.79,.01,2.01,.52,4.01,.8,6.02,.56-.03,1.11-.05,1.67-.08,2.52-7.13,4.97-14.29,7.58-21.4,25.31-68.93,61.24-131.83,109.4-187.26,56.15-64.63,122.19-116.96,198.77-155.83,49.04-24.89,100.07-44.14,153.77-56,21.8-4.81,43.79-8.89,65.85-12.32,15.06-2.34,30.4-2.91,45.6-4.42,4.33-.43,4.57,1.93,4.32,5.14-1.43,18.54-2.92,37.08-4.13,55.64-.34,5.23,.37,10.53,.23,15.78-.16,6.13-1.94,11-8.65,13.57-4.36,1.67-8.23,5.04-11.83,8.2-9.45,8.31-10.28,19.86-2.33,29.71,5.85,7.25,14,11.15,22.31,14.63,13.88,5.8,28.52,7.55,43.43,7.89,18.53,.42,36.52-2.03,53.46-9.95,9.71-4.54,17.99-10.69,22.57-20.89,1.61-3.59,1.68-6.91,.11-10.53-3.62-8.35-9.73-14.42-17.75-18.18-7.04-3.3-8.94-8.11-9.19-15.72-.72-22.01-2.51-43.98-3.95-65.97-.64-9.75-.7-9.81,8.9-8.89,14.89,1.44,29.79,2.87,44.65,4.57,3.57,.41,6.96,2.29,10.54,2.8,6.88,.97,13.83,1.44,20.75,2.12,.83,.08,1.66,.14,2.47,.32,54.89,11.61,108.44,27.25,159.38,51.3,65.88,31.1,125.59,71.1,178.02,121.76,72.86,70.4,126.12,153.3,158.61,249.4,.52,1.54,1.11,3.05,1.67,4.57,.62,.06,1.25,.12,1.87,.19ZM757.68,251.37c-7.15,0-14.31-.17-21.46,.03-50.87,1.37-101.21,7.24-150.87,18.49-83.38,18.89-161.55,50.11-232.17,98.9-56.27,38.88-104.42,85.7-139.43,144.99-56.11,95.04-66.78,195.03-30.95,299.45,21.89,63.79,59.33,118.04,106.16,165.99,45.94,47.03,99.5,83.6,158.02,113.1,89.85,45.29,185.49,67.81,285.72,71.67,72.36,2.79,143.51-5.49,213.34-24.77,110.06-30.39,206.69-83.95,286.65-166.19,37-38.06,66.69-81.15,88.25-129.75,33.5-75.52,42.36-153.33,21.52-233.83-17.85-68.98-54.43-127.03-104.01-177.42-47.85-48.64-103.69-85.73-165.46-114.23-100.04-46.17-205.64-66.13-315.32-66.43Z"/>
      <path class="cls-1" d="M126.72,178.12c0,4.48-.09,8.97,.02,13.45,.26,10.58-10.81,24.19-24.6,24.15-13.62-.03-25.06-9.83-25.88-23.3-.62-10.23-.64-20.57,.13-30.78,.99-13.09,11.15-21.58,24.7-21.84,12.89-.25,23.36,8.27,25.11,20.92,.79,5.74,.69,11.59,1,17.4-.16,0-.32,0-.48,0Z"/>
      <path class="cls-1" d="M126.74,75.85c0,4.33,.05,8.65,0,12.98-.21,14.19-10.8,25.55-24.32,26.14-13.94,.6-25.01-8.67-26.01-23.27-.75-10.82-.64-21.87,.68-32.62,1.61-13.12,13.25-21.08,27.12-20.18,12.02,.78,21.64,10.89,22.18,23.49,.19,4.48,.03,8.97,.03,13.46h.33Z"/>
      <path class="cls-1" d="M1439.45,178.88c0,3.5-.37,7.04,.07,10.48,1.49,11.54-9.08,24.12-20.4,25.71-13.73,1.94-26.18-4.68-29.28-18.09-2.98-12.93-3.26-26.5,.44-39.44,3.7-12.93,15.48-19.54,28.78-17.52,11.25,1.7,19.75,11.77,20.37,24.38,.24,4.81,.04,9.65,.04,14.47,0,0-.02,0-.03,0Z"/>
      <path class="cls-1" d="M1440.07,77.07c-.5,6.28-.34,12.7-1.66,18.8-2.46,11.42-11.87,18.3-24.03,18.59-11.08,.27-20.53-6.18-23.71-16.96-1.44-4.87-2.07-10.11-2.24-15.21-.22-6.8,.13-13.64,.65-20.43,1.03-13.54,12.06-23.14,26.07-23,13.06,.13,23.66,10.56,24.39,24.2,.25,4.65,.04,9.32,.04,13.97,.16,.01,.33,.02,.49,.04Z"/>
      <path class="cls-1" d="M744.36,1084.39c-110.02-.84-222.42-32.62-323.97-100.13-59.3-39.42-107.74-89.36-142.03-152.2-22.61-41.42-35.06-85.8-35.95-133.09-.97-51.62,13.48-99.12,39.66-143.32,29.59-49.96,70.28-89.15,117.83-121.71,62.2-42.59,130.92-69.77,204.19-86.12,44.48-9.92,89.5-15.14,135.08-16.24,112.77-2.73,220.45,18.1,321.47,69.37,62.66,31.8,116.61,74.4,158.15,131.64,29.81,41.08,48.21,86.77,53.38,137.43,4.64,45.49-3.23,89.13-20.42,131.29-23.24,57.01-60.23,103.86-106.2,144.13-71.3,62.47-154.31,101.44-246.11,122.87-47.23,11.02-95.12,15.79-155.08,16.08Z"/>
    </g>
  </g>
</svg>